<svg xmlns="http://www.w3.org/2000/svg" width="24" height="24" fill="none" viewBox="0 0 24 24">
  <path fill="#171719" fill-rule="evenodd" d="M6.6 4.95a1.65 1.65 0 1 1-3.3 0 1.65 1.65 0 0 1 3.3 0Zm14.1 0a1.65 1.65 0 1 1-3.3 0 1.65 1.65 0 0 1 3.3 0ZM12 6.6a1.65 1.65 0 1 0 0-3.3 1.65 1.65 0 0 0 0 3.3ZM6.6 19.05a1.65 1.65 0 1 1-3.3 0 1.65 1.65 0 0 1 3.3 0Zm12.45 1.65a1.65 1.65 0 1 0 0-3.3 1.65 1.65 0 0 0 0 3.3Zm-5.4-1.65a1.65 1.65 0 1 1-3.3 0 1.65 1.65 0 0 1 3.3 0Zm-8.7-5.4a1.65 1.65 0 1 0 0-3.3 1.65 1.65 0 0 0 0 3.3ZM20.7 12a1.65 1.65 0 1 1-3.3 0 1.65 1.65 0 0 1 3.3 0ZM12 13.65a1.65 1.65 0 1 0 0-3.3 1.65 1.65 0 0 0 0 3.3Z" clip-rule="evenodd"/>
</svg>
