<svg xmlns="http://www.w3.org/2000/svg" width="24" height="24" fill="none" viewBox="0 0 24 24">
  <path fill="#171719" fill-rule="evenodd" d="M7.366 2.6h9.267c.392 0 .738 0 1.025.024.306.025.623.08.931.238a2.4 2.4 0 0 1 1.05 1.049c.156.308.212.625.237.93.024.288.024.634.024 1.026V21.5a.9.9 0 0 1-1.367.77L12 18.302l-6.533 3.966A.9.9 0 0 1 4.1 21.5V5.867c0-.392 0-.738.023-1.025.025-.306.081-.623.238-.931a2.4 2.4 0 0 1 1.05-1.05 2.45 2.45 0 0 1 .93-.237c.287-.024.634-.024 1.025-.024Zm-.878 1.818c-.195.015-.248.041-.26.047a.6.6 0 0 0-.263.263c-.006.012-.032.066-.048.26A12.65 12.65 0 0 0 5.9 5.9v14l5.633-3.42a.9.9 0 0 1 .934 0L18.1 19.9v-14c0-.435-.001-.707-.018-.912-.016-.194-.041-.248-.048-.26a.6.6 0 0 0-.262-.263c-.012-.006-.066-.032-.26-.047A12.649 12.649 0 0 0 16.6 4.4H7.4c-.435 0-.707 0-.912.018Z" clip-rule="evenodd"/>
</svg>
