<svg xmlns="http://www.w3.org/2000/svg" width="24" height="24" fill="none" viewBox="0 0 24 24">
  <path fill="#000" fill-rule="evenodd" d="M4.081 6.423A1.3 1.3 0 0 1 5.92 4.585l6.5 6.5a1.3 1.3 0 0 1 0 1.838l-6.5 6.5a1.3 1.3 0 0 1-1.839-1.838l5.581-5.581-5.58-5.58Zm8 0a1.3 1.3 0 1 1 1.839-1.838l6.5 6.5a1.3 1.3 0 0 1 0 1.838l-6.5 6.5a1.3 1.3 0 0 1-1.839-1.838l5.581-5.581-5.58-5.58Z" clip-rule="evenodd"/>
  <path fill="#171719" fill-rule="evenodd" d="M4.081 6.423A1.3 1.3 0 0 1 5.92 4.585l6.5 6.5a1.3 1.3 0 0 1 0 1.838l-6.5 6.5a1.3 1.3 0 1 1-1.839-1.838l5.581-5.58-5.58-5.582Zm8 0a1.3 1.3 0 1 1 1.839-1.838l6.5 6.5a1.3 1.3 0 0 1 0 1.838l-6.5 6.5a1.3 1.3 0 0 1-1.839-1.838l5.581-5.58-5.58-5.582Z" clip-rule="evenodd"/>
</svg>
