<svg xmlns="http://www.w3.org/2000/svg" width="24" height="24" fill="none" viewBox="0 0 24 24">
  <path fill="#000" fill-rule="evenodd" d="M2.581 4.917A1.3 1.3 0 0 1 4.42 3.08l8 8a1.3 1.3 0 0 1 0 1.838l-8 8a1.3 1.3 0 1 1-1.84-1.838L9.66 12 2.58 4.918Zm9.5 0A1.3 1.3 0 1 1 13.92 3.08l8 8a1.3 1.3 0 0 1 0 1.838l-8 8a1.3 1.3 0 1 1-1.839-1.838l7.08-7.08-7.08-7.082Z" clip-rule="evenodd"/>
  <path fill="#171719" fill-rule="evenodd" d="M2.581 4.917A1.3 1.3 0 0 1 4.42 3.08l8 8a1.3 1.3 0 0 1 0 1.838l-8 8a1.3 1.3 0 1 1-1.84-1.838L9.66 12 2.58 4.918Zm9.5 0A1.3 1.3 0 1 1 13.92 3.08l8 8a1.3 1.3 0 0 1 0 1.838l-8 8a1.3 1.3 0 1 1-1.839-1.838l7.08-7.08-7.08-7.082Z" clip-rule="evenodd"/>
</svg>
