<svg xmlns="http://www.w3.org/2000/svg" width="24" height="24" fill="none" viewBox="0 0 24 24">
  <path fill="#000" fill-rule="evenodd" d="M2.864 4.64a.9.9 0 0 1 1.273-1.273l8 8a.9.9 0 0 1 0 1.273l-8 8a.9.9 0 1 1-1.273-1.273l7.364-7.364L2.864 4.64Zm9.5 0a.9.9 0 1 1 1.273-1.273l8 8a.9.9 0 0 1 0 1.273l-8 8a.9.9 0 1 1-1.273-1.273l7.364-7.364-7.364-7.363Z" clip-rule="evenodd"/>
  <path fill="#171719" fill-rule="evenodd" d="M2.864 4.64a.9.9 0 0 1 1.273-1.273l8 8a.9.9 0 0 1 0 1.273l-8 8a.9.9 0 1 1-1.273-1.273l7.364-7.364L2.864 4.64Zm9.5 0a.9.9 0 1 1 1.273-1.273l8 8a.9.9 0 0 1 0 1.273l-8 8a.9.9 0 1 1-1.273-1.273l7.364-7.364-7.364-7.363Z" clip-rule="evenodd"/>
</svg>
