<svg xmlns="http://www.w3.org/2000/svg" width="24" height="24" fill="none" viewBox="0 0 24 24">
  <path fill="#171719" fill-rule="evenodd" d="m23.837 4.007-1.273-1.273-2.963 2.963-1.564-1.563-1.273 1.273 2.837 2.836 4.236-4.236Z" clip-rule="evenodd"/>
  <path fill="#171719" fill-rule="evenodd" d="M5.45 2.1c-.428 0-.834 0-1.167.045-.372.05-.784.17-1.126.512-.341.341-.462.754-.512 1.126-.045.333-.044.739-.044 1.166V21.9h12V17h1.8v4.9h5v-8.95c0-.428 0-.834-.045-1.167-.05-.372-.17-.785-.512-1.127-.341-.341-.754-.461-1.126-.511-.333-.045-.74-.045-1.167-.045h-3.15V4.95c0-.428 0-.834-.045-1.167-.05-.372-.17-.785-.512-1.126-.341-.342-.754-.462-1.126-.512-.333-.045-.74-.045-1.167-.045H5.45Zm6.05 9.8h-5v-1.8h5v1.8Zm0-4h-5V6.1h5v1.8Z" clip-rule="evenodd"/>
</svg>
