<svg xmlns="http://www.w3.org/2000/svg" width="24" height="24" fill="none" viewBox="0 0 24 24">
  <path fill="#171719" fill-rule="evenodd" d="M16.816 8.38a.9.9 0 0 0-1.196-1.195L10.166 9.73a.9.9 0 0 0-.435.435L7.185 15.62a.9.9 0 0 0 1.196 1.196l5.455-2.546a.9.9 0 0 0 .435-.435l2.545-5.454ZM13.001 12a1 1 0 1 1-2 0 1 1 0 0 1 2 0Z" clip-rule="evenodd"/>
  <path fill="#171719" fill-rule="evenodd" d="M12 2.1c-5.467 0-9.9 4.432-9.9 9.9s4.433 9.9 9.9 9.9c5.468 0 9.9-4.432 9.9-9.9S17.469 2.1 12 2.1ZM3.9 12a8.1 8.1 0 1 1 16.2 0 8.1 8.1 0 0 1-16.2 0Z" clip-rule="evenodd"/>
</svg>
