<svg xmlns="http://www.w3.org/2000/svg" width="24" height="24" fill="none" viewBox="0 0 24 24">
  <path fill="#171719" fill-rule="evenodd" d="m23.837 4.007-1.273-1.273-2.963 2.963-1.564-1.563-1.273 1.273 2.837 2.836 4.236-4.236Z" clip-rule="evenodd"/>
  <path fill="#171719" fill-rule="evenodd" d="M4.283 2.145c.333-.045.74-.045 1.167-.045h7.101c.428 0 .834 0 1.167.045.372.05.784.17 1.126.512.341.341.462.754.512 1.126.045.333.044.739.044 1.166V10.1h3.151c.428 0 .834 0 1.167.045.372.05.784.17 1.126.512.341.341.462.754.512 1.126.045.333.044.739.044 1.166V21.9H2.6V4.95c0-.428 0-.834.045-1.167.05-.372.17-.785.512-1.126.342-.342.754-.462 1.126-.512ZM4.4 4a.1.1 0 0 1 .1-.1h9a.1.1 0 0 1 .1.1v16.1H9.9V16H8.1v4.1H4.4V4Zm11 16.1h4.2V12a.1.1 0 0 0-.1-.1h-4.1v8.2Zm-3.9-8.2h-5v-1.8h5v1.8Zm0-4h-5V6.1h5v1.8Z" clip-rule="evenodd"/>
</svg>
