<svg xmlns="http://www.w3.org/2000/svg" width="24" height="24" fill="none" viewBox="0 0 24 24">
  <path fill="#171719" fill-rule="evenodd" d="M6.07 2.1c-.254 0-.496 0-.7.016-.222.018-.478.06-.732.19a1.9 1.9 0 0 0-.83.831c-.13.255-.173.51-.191.733a9.126 9.126 0 0 0-.017.7v14.86c0 .254 0 .496.017.7.018.222.06.477.19.732a1.9 1.9 0 0 0 .83.83c.256.13.51.173.733.191.204.017.446.017.7.017h11.86c.254 0 .496 0 .7-.017.223-.018.478-.06.733-.19a1.9 1.9 0 0 0 .83-.83c.13-.256.172-.51.19-.733.017-.204.017-.446.017-.7V8.9h-6.7V2.1H6.07Zm6.43 13.2h-5v-1.8h5v1.8Zm-5 3h5v-1.8h-5v1.8Z" clip-rule="evenodd"/>
  <path fill="#171719" d="m15.775 2.845 3.79 3.98h-3.79v-3.98Z"/>
</svg>
