<svg xmlns="http://www.w3.org/2000/svg" width="24" height="24" fill="none" viewBox="0 0 24 24">
  <path fill="#171719" fill-rule="evenodd" d="M5.37 2.117c.204-.017.446-.017.7-.017h7.63v6.8h6.7v10.53c0 .254 0 .496-.016.7a1.953 1.953 0 0 1-.19.733 1.9 1.9 0 0 1-.831.83c-.255.13-.51.172-.733.19-.204.017-.446.017-.7.017H6.07c-.254 0-.496 0-.7-.016a1.923 1.923 0 0 1-.732-.191 1.9 1.9 0 0 1-.83-.83 1.923 1.923 0 0 1-.191-.733 9.12 9.12 0 0 1-.017-.7V4.57c0-.254 0-.496.017-.7.018-.222.06-.478.19-.732a1.9 1.9 0 0 1 .83-.83c.256-.13.51-.173.733-.191ZM10 15.8c.344 0 .638-.122.883-.367s.367-.54.367-.883c0-.344-.122-.638-.367-.883A1.203 1.203 0 0 0 10 13.3c-.343 0-.638.123-.882.367a1.204 1.204 0 0 0-.368.883c0 .344.123.638.368.883A1.2 1.2 0 0 0 10 15.8Zm2.5 2.5v-.36a1.246 1.246 0 0 0-.766-1.156 4.734 4.734 0 0 0-.835-.265 4.205 4.205 0 0 0-.899-.094c-.312 0-.612.031-.898.094a4.734 4.734 0 0 0-.836.266A1.246 1.246 0 0 0 7.5 17.94v.36h5Z" clip-rule="evenodd"/>
  <path fill="#171719" d="m19.565 6.826-3.79-3.98v3.98h3.79Z"/>
</svg>
