<svg xmlns="http://www.w3.org/2000/svg" width="24" height="24" fill="none" viewBox="0 0 24 24">
  <path fill="#171719" d="M10 10a1 1 0 1 1-2 0 1 1 0 0 1 2 0Zm6 0a1 1 0 1 1-2 0 1 1 0 0 1 2 0Z"/>
  <path fill="#171719" fill-rule="evenodd" d="M8.548 13.022a.9.9 0 0 1 1.23.326 2.63 2.63 0 0 0 2.272 1.312 2.63 2.63 0 0 0 2.272-1.312.9.9 0 0 1 1.556.904 4.43 4.43 0 0 1-3.828 2.208 4.43 4.43 0 0 1-3.828-2.208.9.9 0 0 1 .326-1.23Z" clip-rule="evenodd"/>
  <path fill="#171719" fill-rule="evenodd" d="M12 3.9a8.1 8.1 0 1 0 0 16.2 8.1 8.1 0 0 0 0-16.2ZM2.1 12c0-5.468 4.432-9.9 9.9-9.9s9.9 4.432 9.9 9.9-4.432 9.9-9.9 9.9-9.9-4.432-9.9-9.9Z" clip-rule="evenodd"/>
</svg>
