<svg xmlns="http://www.w3.org/2000/svg" width="24" height="24" fill="none" viewBox="0 0 24 24">
  <path fill="#171719" fill-rule="evenodd" d="M12 4.946 3.623 9.5 12 14.055 20.377 9.5 12 4.946Zm-.705-1.666a1.476 1.476 0 0 1 1.41 0l8.885 4.83c.256.14.461.349.6.593a1.613 1.613 0 0 1 .21.796v6h-1.8v-4.072l-1.711.93a.9.9 0 0 1 .01.143V18a.9.9 0 0 1-.497.804l-6 3a.9.9 0 0 1-.805 0l-6-3A.9.9 0 0 1 5.1 18v-5.5a.95.95 0 0 1 .011-.142l-2.701-1.47a1.54 1.54 0 0 1-.6-.592 1.613 1.613 0 0 1 0-1.593c.138-.244.343-.453.6-.593l8.885-4.83Zm1.41 12.44 4.395-2.39v4.114l-5.1 2.55-5.1-2.55V13.33l4.395 2.39a1.479 1.479 0 0 0 1.41 0Z" clip-rule="evenodd"/>
</svg>
