<svg xmlns="http://www.w3.org/2000/svg" width="24" height="24" fill="none" viewBox="0 0 24 24">
  <path fill="#171719" fill-rule="evenodd" d="M10.972 6.556c-1.466-2.035-4.25-2.343-6.088-.703-1.876 1.676-1.992 4.68-.242 6.507L12 19.778l7.358-7.418c1.75-1.828 1.634-4.831-.243-6.507-1.838-1.64-4.621-1.332-6.087.703l-.298.414a.9.9 0 0 1-1.46 0l-.298-.414ZM12 4.968c2.167-2.401 5.839-2.666 8.314-.457 2.643 2.36 2.795 6.542.338 9.1l-.01.011-7.472 7.533a1.624 1.624 0 0 1-2.34 0l-7.472-7.533-.01-.01C.891 11.053 1.042 6.87 3.686 4.51 6.16 2.3 9.832 2.567 12 4.968Z" clip-rule="evenodd"/>
</svg>
