<svg xmlns="http://www.w3.org/2000/svg" width="24" height="24" fill="none" viewBox="0 0 24 24">
  <path fill="#171719" fill-rule="evenodd" d="M2.1 12c0-.327.016-.65.047-.97l1.792.175a8.1 8.1 0 1 0 7.266-7.266l-.175-1.792c.32-.031.643-.047.97-.047 5.468 0 9.9 4.432 9.9 9.9s-4.432 9.9-9.9 9.9-9.9-4.432-9.9-9.9Zm7.026-9.476c-.627.19-1.227.44-1.794.744l.85 1.587a8.045 8.045 0 0 1 1.466-.608l-.522-1.723ZM5.719 4.347c-.5.412-.96.871-1.372 1.372l1.391 1.143c.337-.41.714-.787 1.124-1.124l-1.143-1.39ZM3.268 7.332a9.845 9.845 0 0 0-.744 1.794l1.723.522a8.04 8.04 0 0 1 .608-1.466l-1.587-.85ZM10.6 7.5v5.856l.244.26 3 3.2 1.313-1.231-2.757-2.94V7.5h-1.8Z" clip-rule="evenodd"/>
</svg>
