<svg xmlns="http://www.w3.org/2000/svg" width="24" height="24" fill="none" viewBox="0 0 24 24">
  <path fill="#171719" fill-rule="evenodd" d="M11.453 2.285a.9.9 0 0 1 1.094 0l8.5 6.5a.9.9 0 0 1 .353.715v9.43c0 .254 0 .496-.016.7a1.937 1.937 0 0 1-.191.732 1.9 1.9 0 0 1-.83.83c-.255.13-.51.173-.733.191-.204.017-.446.017-.7.017H12.9V14h-1.8v7.4H5.07c-.254 0-.496 0-.7-.017a1.923 1.923 0 0 1-.732-.19 1.9 1.9 0 0 1-.83-.83 1.923 1.923 0 0 1-.191-.733 9.126 9.126 0 0 1-.017-.7V9.5a.9.9 0 0 1 .353-.715l8.5-6.5Z" clip-rule="evenodd"/>
</svg>
