<svg xmlns="http://www.w3.org/2000/svg" width="24" height="24" fill="none" viewBox="0 0 24 24">
  <path fill="#171719" fill-rule="evenodd" d="M3.867 4.604c-.391 0-.738 0-1.025.023-.306.025-.623.08-.931.238A2.4 2.4 0 0 0 .862 5.914c-.157.308-.213.625-.238.931A13.48 13.48 0 0 0 .6 7.87v8.267c0 .391 0 .738.024 1.025.025.306.08.623.238.931a2.4 2.4 0 0 0 1.049 1.049c.308.157.625.213.931.238.287.024.634.024 1.025.024h16.267c.391 0 .738 0 1.025-.024.306-.025.623-.08.931-.238a2.4 2.4 0 0 0 1.049-1.049c.157-.308.213-.625.238-.931.024-.287.024-.634.024-1.025V7.87c0-.391 0-.738-.024-1.025a2.438 2.438 0 0 0-.238-.931 2.4 2.4 0 0 0-1.049-1.049c-.308-.157-.625-.213-.931-.238a13.476 13.476 0 0 0-1.025-.023H3.867ZM2.4 6.998a.6.6 0 0 1 .6-.6h18a.6.6 0 0 1 .6.6v10a.6.6 0 0 1-.6.6H3a.6.6 0 0 1-.6-.6v-10ZM7 9H5v2h2V9Zm4 0H9v2h2V9Zm2 0h2v2h-2V9Zm6 0h-2v2h2V9ZM5 13h2v2H5v-2Zm10 0H9v2h6v-2Zm2 0h2v2h-2v-2Z" clip-rule="evenodd"/>
</svg>
