<svg xmlns="http://www.w3.org/2000/svg" width="24" height="24" fill="none" viewBox="0 0 24 24">
  <path fill="#171719" fill-rule="evenodd" d="M12.04 3.99a.59.59 0 0 0-.547.372l-2.987 7.512v8.131h9.602c.253 0 .393 0 .495-.008a.818.818 0 0 0 .063-.007.1.1 0 0 0 .022-.018c.004-.01.01-.03.017-.06.025-.1.05-.238.093-.487l1.04-5.985c.114-.66.19-1.098.219-1.435.028-.328 0-.464-.026-.537a1.1 1.1 0 0 0-.483-.575c-.068-.038-.196-.088-.525-.116-.337-.03-.781-.03-1.451-.03h-3.264c-.12 0-.259 0-.38-.01a1.41 1.41 0 0 1-.534-.143 1.4 1.4 0 0 1-.611-.612 1.407 1.407 0 0 1-.143-.533c-.01-.121-.01-.26-.01-.38v-4.49a.588.588 0 0 0-.59-.588Zm0-1.8a2.388 2.388 0 0 1 2.39 2.388v4.369h3.18c.621 0 1.145 0 1.569.036.44.039.871.123 1.267.351a2.9 2.9 0 0 1 1.276 1.516c.157.43.166.868.128 1.309-.036.424-.126.94-.232 1.551l-1.05 6.05c-.038.212-.074.418-.117.592-.049.191-.12.405-.26.613a1.9 1.9 0 0 1-.804.675 1.912 1.912 0 0 1-.648.152c-.179.013-.388.013-.604.013H3.808c-.12 0-.259 0-.38-.01a1.41 1.41 0 0 1-.534-.142 1.4 1.4 0 0 1-.612-.612 1.408 1.408 0 0 1-.142-.534c-.01-.121-.01-.26-.01-.38V12.48c0-.12 0-.259.01-.38.011-.139.04-.332.142-.534a1.4 1.4 0 0 1 .612-.612c.202-.102.395-.131.534-.142.121-.01.26-.01.38-.01h3.187L9.82 3.696a2.39 2.39 0 0 1 2.22-1.506ZM6.707 12.602H3.93v7.403h2.776v-7.403Z" clip-rule="evenodd"/>
</svg>
