<svg xmlns="http://www.w3.org/2000/svg" width="24" height="24" fill="none" viewBox="0 0 24 24">
  <path fill="#171719" fill-rule="evenodd" d="M20.318 4.992c.915.245 1.64.97 1.885 1.885C22.65 8.54 22.65 12 22.65 12s0 3.461-.447 5.123a2.675 2.675 0 0 1-1.885 1.885c-1.662.447-8.318.447-8.318.447s-6.656 0-8.318-.447a2.674 2.674 0 0 1-1.885-1.885C1.35 15.46 1.35 12 1.35 12s0-3.461.447-5.123c.245-.916.97-1.64 1.885-1.885C5.344 4.545 12 4.545 12 4.545s6.656 0 8.318.447ZM9.87 8.805v6.39L15.408 12 9.87 8.805Z" clip-rule="evenodd"/>
</svg>
