<svg xmlns="http://www.w3.org/2000/svg" width="24" height="24" fill="none" viewBox="0 0 24 24">
  <path fill="#EA4335" d="m11.944 11.575-7.87 8.351a2.126 2.126 0 0 0 3.133 1.279l.022-.015 8.854-5.107-4.146-4.515.007.007Z"/>
  <path fill="#FBBC04" d="M19.904 10.156h-.008l-3.82-2.224-4.309 3.835 4.323 4.323 3.806-2.194a2.129 2.129 0 0 0 1.116-1.87 2.1 2.1 0 0 0-1.108-1.862v-.008Z"/>
  <path fill="#4285F4" d="M4.074 4.082A2.219 2.219 0 0 0 4 4.628v14.759c0 .192.022.369.074.546l8.136-8.136-8.136-7.715Z"/>
  <path fill="#34A853" d="m12.003 12.004 4.072-4.072L7.23 2.803a2.135 2.135 0 0 0-3.156 1.271l7.93 7.922v.008Z"/>
</svg>
