<svg xmlns="http://www.w3.org/2000/svg" width="24" height="24" fill="none" viewBox="0 0 24 24">
  <path fill="#171719" fill-rule="evenodd" d="M4.1 2.5a.9.9 0 1 1 1.8 0c0 .887.16 1.193.283 1.316.124.124.43.284 1.317.284a.9.9 0 0 1 0 1.8c-.888 0-1.193.16-1.317.283-.123.124-.283.429-.283 1.317a.9.9 0 0 1-1.8 0c0-.888-.16-1.193-.283-1.317-.124-.124-.43-.283-1.317-.283a.9.9 0 1 1 0-1.8c.888 0 1.193-.16 1.317-.284.123-.123.283-.429.283-1.316Zm13.4 1.1a.9.9 0 0 0-.9.9c0 .7-.128.88-.174.926-.045.045-.226.174-.926.174a.9.9 0 0 0 0 1.8c.7 0 .88.128.926.174.046.045.174.226.174.926a.9.9 0 0 0 1.8 0c0-.7.129-.88.174-.926.046-.046.226-.174.926-.174a.9.9 0 1 0 0-1.8c-.7 0-.88-.129-.926-.174-.046-.046-.174-.226-.174-.926a.9.9 0 0 0-.9-.9Zm-11 11a.9.9 0 0 0-.9.9c0 .7-.128.88-.174.926-.045.046-.226.174-.926.174a.9.9 0 1 0 0 1.8c.7 0 .88.128.926.174.046.045.174.226.174.926a.9.9 0 0 0 1.8 0c0-.7.129-.88.174-.926.046-.046.226-.174.926-.174a.9.9 0 0 0 0-1.8c-.7 0-.88-.129-.926-.174C7.53 16.38 7.4 16.2 7.4 15.5a.9.9 0 0 0-.9-.9Zm4.344-6.889a1.9 1.9 0 0 0-1.688 0c-.286.142-.526.384-.734.594l-.117.116c-.21.209-.452.45-.593.735a1.9 1.9 0 0 0 0 1.687c.141.286.384.526.593.734l9.117 9.117c.208.21.449.452.734.594a1.9 1.9 0 0 0 1.688 0c.285-.142.526-.384.734-.594l.117-.117c.21-.208.451-.448.593-.734a1.9 1.9 0 0 0 0-1.687c-.142-.286-.384-.527-.593-.735l-9.117-9.117c-.208-.209-.449-.451-.734-.593Zm-.915 1.632a.1.1 0 0 1 .142 0l4.292 4.293-.727.727-4.292-4.293a.1.1 0 0 1 0-.141l.585-.586Z" clip-rule="evenodd"/>
</svg>
