<svg xmlns="http://www.w3.org/2000/svg" width="24" height="24" fill="none" viewBox="0 0 24 24">
  <path fill="#171719" fill-rule="evenodd" d="M15 5.9a2.1 2.1 0 1 0 0 4.2 2.1 2.1 0 0 0 0-4.2ZM11.1 8a3.9 3.9 0 1 1 7.8 0 3.9 3.9 0 0 1-7.8 0Zm-.55 8.116c-1.106.737-1.65 1.657-1.65 2.55 0 .145 0 .288.002.432 3.965.075 7.932.002 11.898.002.1 0 .199 0 .298-.002.003-.144.002-.287.002-.431 0-.895-.544-1.814-1.65-2.551-1.099-.733-2.67-1.216-4.45-1.216-1.78 0-3.35.483-4.45 1.216Zm-.999-1.498c1.434-.956 3.363-1.518 5.45-1.518 2.085 0 4.014.562 5.448 1.518 1.428.952 2.451 2.365 2.451 4.049 0 .233.006.467-.013.699-.015.18-.05.405-.167.633a1.65 1.65 0 0 1-.72.721 1.665 1.665 0 0 1-.634.167c-.162.013-.352.013-.54.013H9.174c-.186 0-.376 0-.539-.013a1.665 1.665 0 0 1-.633-.167A1.65 1.65 0 0 1 7.28 20a1.665 1.665 0 0 1-.167-.634c-.019-.232-.013-.466-.013-.7 0-1.683 1.024-3.096 2.451-4.048Zm-6.586 1.11c1.041-.694 2.42-1.104 3.903-1.127a6.652 6.652 0 0 0-1.17 1.93c-.68.14-1.273.386-1.734.694-.744.496-1.064 1.083-1.064 1.608l.001.266c.8.013 1.6 0 2.4 0 .002.131.007.276.018.413A3.459 3.459 0 0 0 5.72 20.9H3.142c-.173 0-.349 0-.5-.011a1.67 1.67 0 0 1-.589-.143 1.65 1.65 0 0 1-.799-.8 1.67 1.67 0 0 1-.143-.589c-.013-.174-.011-.349-.011-.523 0-1.316.8-2.396 1.865-3.106ZM5.4 10a1.1 1.1 0 1 1 2.2 0 1.1 1.1 0 0 1-2.2 0Zm1.1-2.9a2.9 2.9 0 1 0 0 5.8 2.9 2.9 0 0 0 0-5.8Z" clip-rule="evenodd"/>
</svg>
