<svg xmlns="http://www.w3.org/2000/svg" width="24" height="24" fill="none" viewBox="0 0 24 24">
  <path fill="#171719" d="M14.21 4.52a5.203 5.203 0 0 0-2.406-.487 5.163 5.163 0 0 0-2.36.667 4.724 4.724 0 0 0-1.727 1.678 4.374 4.374 0 0 0-.616 2.274h1.8c0-.499.119-.944.362-1.353a2.924 2.924 0 0 1 1.072-1.035 3.411 3.411 0 0 1 3.109-.115c.481.227.881.56 1.167.958a2.506 2.506 0 0 1 .197 2.662 2.873 2.873 0 0 1-1.002 1.077 5.97 5.97 0 0 0-1.973 1.952 5.479 5.479 0 0 0-.815 2.607l-.001.023v.502h1.8v-.457a3.68 3.68 0 0 1 .549-1.73 4.176 4.176 0 0 1 1.386-1.366l.008-.004.007-.005a4.675 4.675 0 0 0 1.635-1.762 4.307 4.307 0 0 0-.328-4.548A4.803 4.803 0 0 0 14.21 4.52Zm-2.212 15.456a1.2 1.2 0 1 0 0-2.4 1.2 1.2 0 0 0 0 2.4Z"/>
</svg>
