<svg xmlns="http://www.w3.org/2000/svg" width="24" height="24" fill="none" viewBox="0 0 24 24">
  <path fill="#171719" fill-rule="evenodd" d="M9.608 2.066A10.83 10.83 0 0 1 12 1.8c.822 0 1.623.092 2.392.266.897.203 1.333.975 1.504 1.52.132.422.426.805.866 1.052.413.23.878.298 1.318.22.565-.1 1.42-.052 2 .625.736.86 1.33 1.84 1.746 2.908.384.987-.184 1.864-.656 2.303-.362.336-.578.799-.578 1.306s.216.97.578 1.306c.472.44 1.04 1.316.656 2.302a10.128 10.128 0 0 1-1.745 2.908c-.58.677-1.436.725-2.001.625a1.985 1.985 0 0 0-1.318.22c-.44.247-.734.63-.866 1.052-.17.545-.607 1.318-1.504 1.52a10.83 10.83 0 0 1-4.784 0c-.897-.202-1.333-.975-1.504-1.52a1.832 1.832 0 0 0-.866-1.051 1.985 1.985 0 0 0-1.318-.22c-.565.1-1.42.051-2-.625-.736-.86-1.33-1.84-1.746-2.909-.384-.986.184-1.863.656-2.302.362-.336.578-.8.578-1.306 0-.507-.216-.97-.578-1.306-.472-.44-1.04-1.316-.656-2.303A10.127 10.127 0 0 1 3.92 5.483c.58-.677 1.435-.725 2-.625.44.078.905.01 1.318-.22.44-.247.734-.63.866-1.052.17-.545.607-1.317 1.504-1.52Zm.436 1.85a.659.659 0 0 0-.127.24 3.732 3.732 0 0 1-1.752 2.14 3.885 3.885 0 0 1-2.575.433.573.573 0 0 0-.238.003 8.227 8.227 0 0 0-1.4 2.328l.007.017a.65.65 0 0 0 .165.225A3.676 3.676 0 0 1 5.308 12c0 1.066-.46 2.023-1.184 2.697a.649.649 0 0 0-.171.243c.333.85.809 1.635 1.4 2.328a.574.574 0 0 0 .237.002 3.884 3.884 0 0 1 2.575.433 3.732 3.732 0 0 1 1.752 2.142.659.659 0 0 0 .127.24A8.93 8.93 0 0 0 12 20.3a8.91 8.91 0 0 0 1.956-.216.66.66 0 0 0 .127-.24 3.732 3.732 0 0 1 1.752-2.141 3.885 3.885 0 0 1 2.576-.433.574.574 0 0 0 .237-.003 8.23 8.23 0 0 0 1.4-2.327.65.65 0 0 0-.171-.243A3.676 3.676 0 0 1 18.691 12c0-1.066.46-2.024 1.184-2.697a.647.647 0 0 0 .172-.243 8.228 8.228 0 0 0-1.4-2.328.573.573 0 0 0-.237-.002c-.852.15-1.764.02-2.576-.434a3.732 3.732 0 0 1-1.752-2.142.659.659 0 0 0-.127-.239A8.93 8.93 0 0 0 12 3.7a8.91 8.91 0 0 0-1.956.215ZM20.05 9.048v.001-.001ZM3.95 14.95v-.001ZM8.05 12a3.95 3.95 0 1 1 7.9 0 3.95 3.95 0 0 1-7.9 0ZM12 9.95a2.05 2.05 0 1 0 0 4.1 2.05 2.05 0 0 0 0-4.1Z" clip-rule="evenodd"/>
</svg>
