<svg xmlns="http://www.w3.org/2000/svg" width="24" height="24" fill="none" viewBox="0 0 24 24">
  <path fill="#171719" fill-rule="evenodd" d="M18 2a3 3 0 0 0-2.956 3.518L7.93 9.703a3 3 0 1 0 .195 4.415l6.977 4.104A3.004 3.004 0 0 0 18 22a3 3 0 1 0-1.93-5.297l-7.115-4.185a3.02 3.02 0 0 0-.057-1.296l6.977-4.104A3 3 0 1 0 18 2Zm-1.2 3a1.2 1.2 0 1 1 2.4 0 1.2 1.2 0 0 1-2.4 0ZM6 10.8a1.2 1.2 0 1 0 0 2.4 1.2 1.2 0 0 0 0-2.4ZM16.8 19a1.2 1.2 0 1 1 2.4 0 1.2 1.2 0 0 1-2.4 0Z" clip-rule="evenodd"/>
</svg>
