<svg xmlns="http://www.w3.org/2000/svg" width="24" height="24" fill="none" viewBox="0 0 24 24">
  <path fill="#171719" d="M16.287 8.976v1.289h-1.32c-.482 1.308-1.127 2.407-1.938 3.32.937.688 2.088 1.206 3.471 1.514-.32.307-.757.952-.98 1.328-1.471-.381-2.656-.977-3.617-1.777-1.005.79-2.19 1.381-3.568 1.806-.16-.327-.587-.971-.835-1.289 1.34-.342 2.471-.84 3.393-1.518-.786-.938-1.388-2.066-1.873-3.384H7.694v-1.29h3.573V7.54h1.369v1.436h3.65Zm-5.801 1.289a7.715 7.715 0 0 0 1.5 2.387c.592-.664 1.063-1.455 1.417-2.387h-2.918Z"/>
  <path fill="#171719" fill-rule="evenodd" d="M9.611 2.35h4.778c1.087 0 1.958 0 2.662.058.722.059 1.348.183 1.924.476a4.9 4.9 0 0 1 2.141 2.142c.293.575.418 1.201.477 1.924.057.703.057 1.574.057 2.661v4.778c0 1.087 0 1.958-.057 2.662-.06.722-.184 1.348-.477 1.924a4.9 4.9 0 0 1-2.141 2.141c-.576.293-1.202.418-1.924.477-.704.057-1.575.057-2.662.057H9.611c-1.087 0-1.958 0-2.661-.057-.723-.06-1.349-.184-1.924-.477a4.9 4.9 0 0 1-2.142-2.141c-.293-.576-.417-1.202-.476-1.924-.058-.704-.058-1.575-.058-2.662V9.611c0-1.087 0-1.958.058-2.661.059-.723.183-1.349.476-1.924a4.9 4.9 0 0 1 2.142-2.142c.575-.293 1.201-.417 1.924-.476.703-.058 1.574-.058 2.661-.058ZM7.096 4.202c-.611.05-.973.143-1.253.286a3.1 3.1 0 0 0-1.355 1.355c-.143.28-.236.642-.286 1.253-.051.622-.052 1.42-.052 2.554v4.7c0 1.135 0 1.932.052 2.554.05.611.143.974.286 1.253a3.1 3.1 0 0 0 1.355 1.355c.28.143.642.237 1.253.287.622.05 1.42.051 2.554.051h4.7c1.135 0 1.932 0 2.554-.051.611-.05.974-.144 1.253-.287a3.1 3.1 0 0 0 1.355-1.355c.143-.28.237-.642.287-1.253.05-.622.051-1.419.051-2.554v-4.7c0-1.135 0-1.932-.051-2.554-.05-.611-.144-.973-.287-1.253a3.1 3.1 0 0 0-1.355-1.355c-.28-.143-.642-.236-1.253-.286-.622-.051-1.419-.052-2.554-.052h-4.7c-1.135 0-1.932 0-2.554.052Z" clip-rule="evenodd"/>
</svg>
