<svg xmlns="http://www.w3.org/2000/svg" width="24" height="24" fill="none" viewBox="0 0 24 24">
  <path fill="#171719" d="M14.99 7.61v2.68h1.16v1.14h-1.16v2.855h-1.405V7.61h1.404ZM7.85 9.598V8.506H9.8V7.6h1.405v.906h1.95v1.092H7.85Zm.42 2.007c-.006-1.042.926-1.749 2.233-1.754 1.302.005 2.219.712 2.224 1.754-.005 1.038-.922 1.73-2.224 1.725-1.307.005-2.239-.687-2.234-1.725Zm.848 4.795v-2.63h1.404v1.51h4.76v1.12H9.118Zm.517-4.795c0 .449.346.668.868.673.527-.005.883-.224.887-.673-.005-.448-.36-.682-.887-.682-.522 0-.868.234-.868.682Z"/>
  <path fill="#171719" fill-rule="evenodd" d="M9.611 2.35h4.778c1.087 0 1.958 0 2.661.058.723.059 1.349.183 1.924.476a4.9 4.9 0 0 1 2.142 2.142c.293.575.417 1.201.477 1.924.057.703.057 1.574.057 2.661v4.778c0 1.087 0 1.958-.057 2.662-.06.722-.184 1.348-.477 1.924a4.9 4.9 0 0 1-2.142 2.141c-.575.293-1.2.418-1.924.477-.703.057-1.574.057-2.661.057H9.61c-1.087 0-1.958 0-2.662-.057-.722-.06-1.348-.184-1.924-.477a4.9 4.9 0 0 1-2.141-2.141c-.293-.576-.417-1.202-.477-1.924-.057-.704-.057-1.575-.057-2.662V9.611c0-1.087 0-1.958.057-2.661.06-.723.184-1.349.477-1.924a4.9 4.9 0 0 1 2.141-2.142c.576-.293 1.202-.417 1.924-.476.704-.058 1.575-.058 2.662-.058ZM7.096 4.202c-.611.05-.974.143-1.253.286a3.1 3.1 0 0 0-1.355 1.355c-.143.28-.237.642-.287 1.253-.05.622-.051 1.42-.051 2.554v4.7c0 1.135 0 1.932.051 2.554.05.611.144.974.287 1.253a3.1 3.1 0 0 0 1.355 1.355c.28.143.642.237 1.253.287.622.05 1.419.051 2.554.051h4.7c1.135 0 1.932 0 2.554-.051.611-.05.974-.144 1.253-.287a3.1 3.1 0 0 0 1.355-1.355c.143-.28.236-.642.287-1.253.05-.622.051-1.419.051-2.554v-4.7c0-1.135 0-1.932-.052-2.554-.05-.611-.143-.973-.286-1.253a3.1 3.1 0 0 0-1.355-1.355c-.28-.143-.642-.236-1.253-.286-.622-.051-1.42-.052-2.554-.052h-4.7c-1.135 0-1.932 0-2.554.052Z" clip-rule="evenodd"/>
</svg>
