<svg xmlns="http://www.w3.org/2000/svg" width="24" height="24" fill="none" viewBox="0 0 24 24">
  <path fill="#171719" d="M7.811 9.835V8.556h2.439V7.45h1.514v1.106h4.426v1.279h-4.426v.617c.145-.01.29-.016.44-.016 2.632.006 4.153 1.08 4.147 2.954.006 1.553-1.17 2.836-2.868 3.159l-.57-1.268c1.204-.247 1.907-.961 1.913-1.901a1.46 1.46 0 0 0-.263-.865c-1.67 2.277-3.658 3.754-5.13 3.754-1.1 0-1.783-.805-1.783-2.105 0-1.58 1.02-2.841 2.6-3.405v-.924H7.81Zm1.332 4.275c0 .532.188.822.537.827.172 0 .382-.07.623-.188V12.2c-.73.429-1.16 1.095-1.16 1.911Zm2.568-.408a14.763 14.763 0 0 0 1.713-1.907 4.032 4.032 0 0 0-.961-.113 4.81 4.81 0 0 0-.752.054v1.966Z"/>
  <path fill="#171719" fill-rule="evenodd" d="M9.611 2.35h4.778c1.087 0 1.958 0 2.662.058.722.059 1.348.183 1.924.476a4.9 4.9 0 0 1 2.141 2.142c.293.575.418 1.201.477 1.924.057.703.057 1.574.057 2.661v4.778c0 1.087 0 1.958-.057 2.662-.06.722-.184 1.348-.477 1.924a4.9 4.9 0 0 1-2.141 2.141c-.576.293-1.202.418-1.925.477-.703.057-1.574.057-2.661.057H9.611c-1.087 0-1.958 0-2.661-.057-.723-.06-1.349-.184-1.925-.477a4.9 4.9 0 0 1-2.14-2.141c-.294-.576-.418-1.202-.477-1.924-.058-.704-.058-1.575-.058-2.662V9.611c0-1.087 0-1.958.058-2.661.059-.723.183-1.349.476-1.924a4.9 4.9 0 0 1 2.141-2.142c.576-.293 1.202-.417 1.925-.476.703-.058 1.574-.058 2.661-.058ZM7.096 4.202c-.611.05-.974.143-1.253.286a3.1 3.1 0 0 0-1.355 1.355c-.143.28-.237.642-.286 1.253-.051.622-.052 1.42-.052 2.554v4.7c0 1.135 0 1.932.052 2.554.05.611.143.974.286 1.253a3.1 3.1 0 0 0 1.355 1.355c.28.143.642.237 1.253.287.622.05 1.42.051 2.554.051h4.7c1.135 0 1.932 0 2.554-.051.611-.05.974-.144 1.253-.287a3.1 3.1 0 0 0 1.355-1.355c.143-.28.237-.642.287-1.253.05-.622.051-1.419.051-2.554v-4.7c0-1.135 0-1.932-.052-2.554-.05-.611-.143-.973-.286-1.253a3.1 3.1 0 0 0-1.355-1.355c-.28-.143-.642-.236-1.253-.286-.622-.051-1.419-.052-2.554-.052h-4.7c-1.135 0-1.932 0-2.554.052Z" clip-rule="evenodd"/>
</svg>
