<svg xmlns="http://www.w3.org/2000/svg" width="24" height="24" fill="none" viewBox="0 0 24 24">
  <path fill="#171719" fill-rule="evenodd" d="m12 3.988-.086.149L9.605 8.1l-.021.038c-.078.136-.228.4-.477.58-.248.181-.545.242-.699.274L8.366 9l-4.483.97-.168.037.114.128 3.056 3.42.03.033c.105.115.31.34.405.632.095.292.061.593.044.75l-.005.043-.462 4.563-.017.17c.049-.02.1-.044.157-.068l4.197-1.85.04-.018c.143-.064.419-.19.726-.19.308 0 .584.126.727.19l.04.018 4.197 1.85.157.069-.017-.17-.462-4.564a4.157 4.157 0 0 0-.005-.043c-.018-.157-.051-.458.044-.75.095-.293.299-.517.405-.633l.029-.032 3.056-3.42.114-.128-.167-.036L15.635 9l-.043-.01c-.154-.03-.45-.092-.7-.272-.248-.181-.398-.445-.475-.581a5.663 5.663 0 0 0-.022-.038l-2.308-3.963L12 3.988Zm-1.098-1.61c.19-.236.54-.585 1.098-.585s.91.35 1.099.586c.174.218.348.516.516.806.01.015.018.03.027.046l2.309 3.963.022.038.043.01 4.483.97.051.012c.328.07.665.143.927.242.283.107.724.333.896.864.172.53-.05.972-.217 1.225-.154.234-.384.491-.607.74l-.036.04-3.056 3.42-.03.034.005.043.462 4.564.006.052c.034.334.069.677.056.956-.015.303-.094.792-.545 1.12-.452.328-.94.252-1.233.172-.27-.074-.585-.213-.892-.349l-.048-.021-4.197-1.85-.04-.017c-.013.005-.027.01-.041.017l-4.198 1.85-.048.021c-.307.136-.622.275-.892.349-.292.08-.781.156-1.233-.172-.45-.328-.53-.817-.544-1.12-.013-.279.022-.622.056-.956l.005-.052.462-4.564.004-.043-.029-.033-3.056-3.42-.035-.04c-.224-.25-.454-.507-.607-.74-.167-.254-.39-.696-.218-1.226.173-.531.613-.757.896-.864.262-.099.6-.172.927-.242l.052-.012 4.483-.97.043-.01.022-.038 2.308-3.963.027-.046c.169-.29.342-.588.517-.806Z" clip-rule="evenodd"/>
</svg>
