<svg xmlns="http://www.w3.org/2000/svg" width="24" height="24" fill="none" viewBox="0 0 24 24">
  <path fill="#171719" fill-rule="evenodd" d="M13.179 2.85a2.9 2.9 0 0 0-2.357 0c-.523.233-.9.659-1.229 1.122-.325.46-.683 1.078-1.119 1.83l-5.494 9.49c-.437.756-.797 1.377-1.034 1.889-.239.517-.42 1.058-.361 1.628a2.9 2.9 0 0 0 1.179 2.045c.463.337 1.023.45 1.59.503.562.051 1.28.051 2.152.051h10.989c.872 0 1.59 0 2.152-.051.567-.052 1.126-.166 1.59-.503a2.9 2.9 0 0 0 1.179-2.045c.06-.57-.123-1.111-.362-1.628-.237-.512-.596-1.133-1.033-1.888l-5.495-9.49c-.435-.753-.793-1.372-1.119-1.831-.328-.463-.706-.89-1.228-1.122ZM11.1 9.014h1.8v5.997h-1.8V9.014Zm2.1 8.196a1.2 1.2 0 1 1-2.4 0 1.2 1.2 0 0 1 2.4 0Z" clip-rule="evenodd"/>
</svg>
