<svg xmlns="http://www.w3.org/2000/svg" width="24" height="24" fill="none" viewBox="0 0 24 24">
  <path fill="#171719" fill-rule="evenodd" d="M10.026 2.427a2.772 2.772 0 0 1 3.95 0l1.112 1.13a.972.972 0 0 0 .7.29l1.586-.012a2.772 2.772 0 0 1 2.792 2.792l-.012 1.586a.972.972 0 0 0 .29.7l1.13 1.113a2.772 2.772 0 0 1 0 3.95l-1.13 1.112a.972.972 0 0 0-.29.7l.012 1.586a2.772 2.772 0 0 1-2.792 2.792l-1.586-.012a.973.973 0 0 0-.7.29l-1.113 1.13a2.772 2.772 0 0 1-3.95 0l-1.112-1.13a.972.972 0 0 0-.7-.29l-1.586.012a2.772 2.772 0 0 1-2.792-2.792l.012-1.586a.972.972 0 0 0-.29-.7l-1.13-1.113a2.772 2.772 0 0 1 0-3.949l1.13-1.113a.972.972 0 0 0 .29-.7l-.012-1.586a2.772 2.772 0 0 1 2.792-2.792l1.586.012a.972.972 0 0 0 .7-.29l1.113-1.13Zm5.35 6.426 1.25 1.295-5.802 5.604-3.449-3.331 1.25-1.295 2.199 2.123 4.551-4.396Z" clip-rule="evenodd"/>
</svg>
