<svg xmlns="http://www.w3.org/2000/svg" width="24" height="24" fill="none" viewBox="0 0 24 24">
  <path fill="#171719" fill-rule="evenodd" d="M10.026 2.427a2.772 2.772 0 0 1 3.949 0l1.113 1.13a.972.972 0 0 0 .7.29l1.585-.012a2.772 2.772 0 0 1 2.793 2.792l-.012 1.586a.972.972 0 0 0 .29.7l1.13 1.113a2.772 2.772 0 0 1 0 3.95l-1.13 1.112a.972.972 0 0 0-.29.7l.012 1.586a2.772 2.772 0 0 1-2.793 2.792l-1.586-.012a.972.972 0 0 0-.7.29l-1.112 1.13a2.772 2.772 0 0 1-3.95 0l-1.112-1.13a.972.972 0 0 0-.7-.29l-1.586.012a2.772 2.772 0 0 1-2.792-2.792l.011-1.586a.972.972 0 0 0-.29-.7l-1.13-1.113a2.772 2.772 0 0 1 0-3.949l1.13-1.113a.972.972 0 0 0 .29-.7l-.011-1.586a2.772 2.772 0 0 1 2.792-2.792l1.586.012a.972.972 0 0 0 .7-.29l1.113-1.13Zm2.333 5.3a.4.4 0 0 0-.717 0L10.623 9.79a.4.4 0 0 1-.301.22l-2.276.33a.4.4 0 0 0-.222.682l1.647 1.605a.4.4 0 0 1 .115.354l-.389 2.267a.4.4 0 0 0 .58.421l2.036-1.07a.4.4 0 0 1 .372 0l2.036 1.07a.4.4 0 0 0 .58-.421l-.389-2.267a.4.4 0 0 1 .115-.354l1.647-1.605a.4.4 0 0 0-.222-.682l-2.275-.33a.4.4 0 0 1-.301-.22l-1.018-2.062Z" clip-rule="evenodd"/>
</svg>
